# xmcd
#
# Track frame offsets:
# 150
# 18243
# 35901
# 51356
# 69663
# 88038
# 106696
# 120940
# 138966
# 156445
#
# Disc length: 2326 seconds
#
#
# Revision: 0
# Processed by: cddbd v1.5.1PL2 Copyright (c) Steve Scherf et al.
# Submitted via: FreeRIP 2.931 
#
DISCID=8109140a
DTITLE=Verónica Orozco - Verónica Orozco
DYEAR=2006
DGENRE=Pop
TTITLE0=Loca
TTITLE1=Cuchi, Cuchi
TTITLE2=Miénteme
TTITLE3=Las Bragas
TTITLE4=Perdóname
TTITLE5=Pienso en Tí
TTITLE6=Descarada
TTITLE7=Pasión Asesina
TTITLE8=El Perfume
TTITLE9=Estar Contigo
EXTD=
EXTT0=
EXTT1=
EXTT2=
EXTT3=
EXTT4=
EXTT5=
EXTT6=
EXTT7=
EXTT8=
EXTT9=
PLAYORDER=
